<svg width="103" height="25" viewBox="0 0 103 25" fill="none" xmlns="http://www.w3.org/2000/svg">
<rect width="103" height="25" rx="12.5" fill="#F4F4F4"/>
<path d="M14.3594 17.1406C13.1914 17.1406 12.2637 16.748 11.5762 15.9629C10.8926 15.1738 10.5508 14.1094 10.5508 12.7695C10.5508 11.4414 10.8965 10.3828 11.5879 9.59375C12.2793 8.80078 13.2031 8.4043 14.3594 8.4043C15.2578 8.4043 16.0234 8.65039 16.6562 9.14258C17.293 9.63086 17.6895 10.2812 17.8457 11.0938H16.7676C16.6152 10.5703 16.3203 10.1543 15.8828 9.8457C15.4453 9.5332 14.9375 9.37695 14.3594 9.37695C13.5352 9.37695 12.875 9.68555 12.3789 10.3027C11.8828 10.9199 11.6348 11.7422 11.6348 12.7695C11.6348 13.8086 11.8809 14.6348 12.373 15.248C12.8652 15.8613 13.5293 16.168 14.3652 16.168C14.9629 16.168 15.4707 16.0352 15.8887 15.7695C16.3066 15.5039 16.5996 15.1289 16.7676 14.6445H17.8457C17.6387 15.4492 17.2344 16.0664 16.6328 16.4961C16.0312 16.9258 15.2734 17.1406 14.3594 17.1406ZM20.0547 17H19.0469V10.9062H20.2832L22.4512 15.6523H22.498L24.6777 10.9062H25.8672V17H24.8535V12.6758H24.8125L22.8438 16.8242H22.0645L20.0957 12.6758H20.0547V17ZM29.8281 17.1055C28.9766 17.1055 28.293 16.8223 27.7773 16.2559C27.2617 15.6855 27.0039 14.918 27.0039 13.9531C27.0039 12.9883 27.2617 12.2227 27.7773 11.6562C28.293 11.0859 28.9766 10.8008 29.8281 10.8008C30.6758 10.8008 31.3574 11.0859 31.873 11.6562C32.3887 12.2227 32.6465 12.9883 32.6465 13.9531C32.6465 14.9141 32.3887 15.6797 31.873 16.25C31.3574 16.8203 30.6758 17.1055 29.8281 17.1055ZM28.5215 15.6113C28.8457 16.0098 29.2812 16.209 29.8281 16.209C30.375 16.209 30.8086 16.0117 31.1289 15.6172C31.4492 15.2188 31.6094 14.6641 31.6094 13.9531C31.6094 13.2422 31.4492 12.6895 31.1289 12.2949C30.8086 11.8965 30.375 11.6973 29.8281 11.6973C29.2812 11.6973 28.8457 11.8965 28.5215 12.2949C28.2012 12.6934 28.041 13.2461 28.041 13.9531C28.041 14.6602 28.2012 15.2129 28.5215 15.6113ZM38.002 10.9062V11.7441H36.0332V17H35.0254V11.7441H33.0566V10.9062H38.002ZM41.9102 10.8008C42.6914 10.8008 43.3203 11.0879 43.7969 11.6621C44.2773 12.2363 44.5176 13 44.5176 13.9531C44.5176 14.9023 44.2793 15.666 43.8027 16.2441C43.3262 16.8184 42.7031 17.1055 41.9336 17.1055C41.5039 17.1055 41.1191 17.0078 40.7793 16.8125C40.4395 16.6172 40.1777 16.3496 39.9941 16.0098H39.9707V19.0332H38.9512V10.9062H39.918V11.9375H39.9414C40.1328 11.5859 40.4004 11.3086 40.7441 11.1055C41.0879 10.9023 41.4766 10.8008 41.9102 10.8008ZM41.7109 16.209C42.2539 16.209 42.6836 16.0059 43 15.5996C43.3164 15.1934 43.4746 14.6445 43.4746 13.9531C43.4746 13.2617 43.3164 12.7129 43 12.3066C42.6836 11.9004 42.2539 11.6973 41.7109 11.6973C41.1875 11.6973 40.7656 11.9043 40.4453 12.3184C40.125 12.7324 39.9648 13.2773 39.9648 13.9531C39.9648 14.6328 40.125 15.1797 40.4453 15.5938C40.7656 16.0039 41.1875 16.209 41.7109 16.209ZM48.0977 11.6855C47.625 11.6855 47.2324 11.8496 46.9199 12.1777C46.6113 12.502 46.4414 12.9199 46.4102 13.4316H49.7207C49.709 12.916 49.5547 12.4961 49.2578 12.1719C48.9609 11.8477 48.5742 11.6855 48.0977 11.6855ZM49.6973 15.2539H50.6992C50.6094 15.793 50.3281 16.2363 49.8555 16.584C49.3867 16.9316 48.8223 17.1055 48.1621 17.1055C47.291 17.1055 46.6055 16.8242 46.1055 16.2617C45.6055 15.6992 45.3555 14.9375 45.3555 13.9766C45.3555 13.0234 45.6055 12.2559 46.1055 11.6738C46.6094 11.0918 47.2793 10.8008 48.1152 10.8008C48.9355 10.8008 49.584 11.0762 50.0605 11.627C50.5371 12.1777 50.7754 12.916 50.7754 13.8418V14.2285H46.4043V14.2871C46.4043 14.873 46.5645 15.3418 46.8848 15.6934C47.2051 16.0449 47.6387 16.2207 48.1855 16.2207C48.5684 16.2207 48.8945 16.1328 49.1641 15.957C49.4336 15.7812 49.6113 15.5469 49.6973 15.2539ZM56.1309 10.9062V11.7441H54.1621V17H53.1543V11.7441H51.1855V10.9062H56.1309ZM59.2188 13.6895H58.082V16.1621H59.2188C59.6133 16.1621 59.9277 16.0488 60.1621 15.8223C60.4004 15.5957 60.5195 15.2969 60.5195 14.9258C60.5195 14.5508 60.4004 14.252 60.1621 14.0293C59.9277 13.8027 59.6133 13.6895 59.2188 13.6895ZM57.0742 17V10.9062H58.082V12.8516H59.2363C59.9355 12.8516 60.4922 13.0391 60.9062 13.4141C61.3203 13.7891 61.5273 14.293 61.5273 14.9258C61.5273 15.5586 61.3203 16.0625 60.9062 16.4375C60.4922 16.8125 59.9355 17 59.2363 17H57.0742ZM67.5684 11.7324H66.1094V13.4375H67.416C68.1738 13.4375 68.5527 13.1484 68.5527 12.5703C68.5527 12.3008 68.4688 12.0938 68.3008 11.9492C68.1328 11.8047 67.8887 11.7324 67.5684 11.7324ZM67.498 14.2578H66.1094V16.1738H67.6797C68.0469 16.1738 68.3281 16.0938 68.5234 15.9336C68.7188 15.7695 68.8164 15.5332 68.8164 15.2246C68.8164 14.5801 68.377 14.2578 67.498 14.2578ZM65.1016 17V10.9062H67.709C68.2793 10.9062 68.7285 11.0449 69.0566 11.3223C69.3848 11.5996 69.5488 11.9805 69.5488 12.4648C69.5488 12.7734 69.4512 13.0547 69.2559 13.3086C69.0645 13.5625 68.8281 13.7188 68.5469 13.7773V13.8242C68.9297 13.8789 69.2363 14.0352 69.4668 14.293C69.7012 14.5508 69.8184 14.8691 69.8184 15.248C69.8184 15.7871 69.6309 16.2148 69.2559 16.5312C68.8848 16.8438 68.375 17 67.7266 17H65.1016ZM76.0293 12.7812H75.0215C74.9277 12.4648 74.75 12.2051 74.4883 12.002C74.2266 11.7988 73.8926 11.6973 73.4863 11.6973C72.9551 11.6973 72.5293 11.9043 72.209 12.3184C71.8887 12.7285 71.7285 13.2734 71.7285 13.9531C71.7285 14.6445 71.8887 15.1934 72.209 15.5996C72.5332 16.0059 72.9629 16.209 73.498 16.209C73.8965 16.209 74.2266 16.1152 74.4883 15.9277C74.7539 15.7402 74.9355 15.4766 75.0332 15.1367H76.041C75.9395 15.7227 75.6582 16.1973 75.1973 16.5605C74.7363 16.9238 74.168 17.1055 73.4922 17.1055C72.6406 17.1055 71.9609 16.8223 71.4531 16.2559C70.9453 15.6855 70.6914 14.918 70.6914 13.9531C70.6914 13.0039 70.9453 12.2422 71.4531 11.668C71.9609 11.0898 72.6367 10.8008 73.4805 10.8008C74.1797 10.8008 74.7539 10.9922 75.2031 11.375C75.6562 11.7578 75.9316 12.2266 76.0293 12.7812ZM79.5508 11.6855C79.0781 11.6855 78.6855 11.8496 78.373 12.1777C78.0645 12.502 77.8945 12.9199 77.8633 13.4316H81.1738C81.1621 12.916 81.0078 12.4961 80.7109 12.1719C80.4141 11.8477 80.0273 11.6855 79.5508 11.6855ZM81.1504 15.2539H82.1523C82.0625 15.793 81.7812 16.2363 81.3086 16.584C80.8398 16.9316 80.2754 17.1055 79.6152 17.1055C78.7441 17.1055 78.0586 16.8242 77.5586 16.2617C77.0586 15.6992 76.8086 14.9375 76.8086 13.9766C76.8086 13.0234 77.0586 12.2559 77.5586 11.6738C78.0625 11.0918 78.7324 10.8008 79.5684 10.8008C80.3887 10.8008 81.0371 11.0762 81.5137 11.627C81.9902 12.1777 82.2285 12.916 82.2285 13.8418V14.2285H77.8574V14.2871C77.8574 14.873 78.0176 15.3418 78.3379 15.6934C78.6582 16.0449 79.0918 16.2207 79.6387 16.2207C80.0215 16.2207 80.3477 16.1328 80.6172 15.957C80.8867 15.7812 81.0645 15.5469 81.1504 15.2539Z" fill="black"/>
<path d="M90 9.93289L93 13.0231L90 15.8926" stroke="#717171"/>
</svg>
