<svg width="30" height="30" viewBox="0 0 30 30" fill="none" xmlns="http://www.w3.org/2000/svg">
<circle cx="15" cy="15" r="15" fill="#F4F4F4"/>
<path fill-rule="evenodd" clip-rule="evenodd" d="M10.9403 9.03347C10.3317 9.1251 9.83447 9.31923 9.29867 9.67436C8.99871 9.87318 8.47877 10.4134 8.25937 10.7542C7.47409 11.974 7.28571 13.5239 7.75107 14.9364C8.02957 15.7817 8.56475 16.6193 9.46175 17.6138C10.1255 18.3496 10.7474 18.9243 13.2319 21.098C14.8789 22.5389 14.8641 22.528 15.1001 22.4829C15.1548 22.4724 15.2443 22.4272 15.299 22.3824C15.5005 22.2174 18.3446 19.7192 18.8409 19.2712C20.5522 17.7267 21.4205 16.7122 21.9592 15.6277C22.3899 14.7606 22.5616 13.8854 22.4805 12.9704C22.3773 11.8056 21.9743 10.8912 21.2333 10.1404C20.7146 9.61473 20.1462 9.28374 19.4712 9.11411C18.3892 8.84224 17.3063 9.04381 16.4291 9.68039C15.9571 10.0229 15.435 10.6132 15.1297 11.1495C15.0667 11.2601 15.0086 11.3506 15.0006 11.3506C14.9925 11.3506 14.9344 11.2601 14.8714 11.1495C14.5661 10.6132 14.044 10.0229 13.572 9.68039C13.3101 9.49036 12.9047 9.2749 12.6406 9.18545C12.1476 9.01842 11.4528 8.95631 10.9403 9.03347Z" fill="#717171"/>
</svg>
